:FULLY-SPECIFIED
:FORCE-ALL-JOINTS-BE-3DOF
:DEGREES
437
root 10.5477 17.2442 25.7225 7.32342 -1.06088 0.993452
lfemur -31.0114 4.41338 -26.9522
ltibia 29.9402 0 0
lfoot -5.62924 5.67466 0
ltoes -1.36957 0 0
rfemur -0.534614 -2.29506 18.1103
rtibia 50.2976 0 0
rfoot 8.90341 -4.66601 0
rtoes -9.85393 0 0
lowerback -6.77136 1.42677 -2.29056
upperback -3.45762 1.99691 0.790169
thorax 0.121924 1.04549 2.25181
lowerneck -17.074 -5.11523 -13.8993
upperneck 22.6864 -6.58319 12.7894
head 11.0636 -2.74152 6.06878
lclavicle 4.98581e-16 1.2589e-15 0
lhumerus -42.0583 -4.24347 90.0847
lradius 19.6371 0 0
lwrist -4.96709 0 0
lhand -10.3535 -23.1432 0
lfingers 7.12502 0 0
lthumb 15.6427 6.23812 0
rclavicle 4.98581e-16 1.2589e-15 0
rhumerus -45.3232 11.2129 -90.9957
rradius 30.812 0 0
rwrist -12.7739 0 0
rhand -31.3473 -25.7307 0
rfingers 7.12502 0 0
rthumb -4.61844 -55.6586 0
438
root 10.573 17.275 25.8581 7.23324 -1.11454 1.31519
lfemur -30.0811 4.44701 -27.3511
ltibia 29.5317 0 0
lfoot -6.26626 5.6017 0
ltoes -1.61338 0 0
rfemur -2.33448 -2.55833 17.554
rtibia 53.2248 0 0
rfoot 8.4692 -5.169 0
rtoes -9.12704 0 0
lowerback -6.62844 1.31057 -2.48557
upperback -3.51001 1.85653 0.73545
thorax -0.00894292 0.977558 2.2874
lowerneck -16.9782 -4.98328 -13.816
upperneck 22.7461 -6.40551 12.6694
head 11.0288 -2.67129 6.03991
lclavicle 1.03497e-15 1.85042e-15 0
lhumerus -41.3175 -4.23589 89.9419
lradius 19.564 0 0
lwrist -5.18401 0 0
lhand -10.5805 -23.1796 0
lfingers 7.12502 0 0
lthumb 15.4242 6.22003 0
rclavicle 1.03497e-15 1.85042e-15 0
rhumerus -45.7731 11.3191 -91.0524
rradius 30.8147 0 0
rwrist -12.7976 0 0
rhand -31.5224 -25.7486 0
rfingers 7.12502 0 0
rthumb -4.78752 -55.6732 0
439
root 10.5969 17.3031 25.9924 7.14243 -1.14672 1.61132
lfemur -29.1818 4.47466 -27.7195
ltibia 29.1573 0 0
lfoot -6.87395 5.52655 0
ltoes -1.80523 0 0
rfemur -4.05165 -2.79045 17.0477
rtibia 55.8784 0 0
rfoot 7.98814 -5.6353 0
rtoes -8.50716 0 0
lowerback -6.49308 1.18965 -2.66594
upperback -3.54818 1.70865 0.689087
thorax -0.119545 0.905351 2.32361
lowerneck -16.9083 -4.85712 -13.7301
upperneck 22.8075 -6.23466 12.5524
head 11.0015 -2.60285 6.01063
lclavicle 1.57747e-15 2.42366e-15 0
lhumerus -40.5609 -4.27978 89.8023
lradius 19.5156 0 0
lwrist -5.35879 0 0
lhand -10.7945 -23.2157 0
lfingers 7.12502 0 0
lthumb 15.2181 6.2011 0
rclavicle 1.57747e-15 2.42366e-15 0
rhumerus -46.1838 11.4105 -91.0903
rradius 30.8412 0 0
rwrist -12.837 0 0
rhand -31.6923 -25.7553 0
rfingers 7.12502 0 0
rthumb -4.95162 -55.6766 0
440
root 10.6195 17.3281 26.1252 7.05164 -1.1545 1.87827
lfemur -28.3207 4.49707 -28.0546
ltibia 28.8253 0 0
lfoot -7.44321 5.44769 0
ltoes -1.93573 0 0
rfemur -5.66818 -2.9876 16.5983
rtibia 58.2167 0 0
rfoot 7.4603 -6.05945 0
rtoes -8.01113 0 0
lowerback -6.36689 1.06385 -2.82971
upperback -3.57077 1.55291 0.651853
thorax -0.207445 0.828641 2.3602
lowerneck -16.8674 -4.73804 -13.6416
upperneck 22.8707 -6.0723 12.4393
head 10.9826 -2.53677 5.98111
lclavicle 2.12494e-15 2.97281e-15 0
lhumerus -39.7892 -4.38028 89.6664
lradius 19.4941 0 0
lwrist -5.48733 0 0
lhand -10.9928 -23.2514 0
lfingers 7.12502 0 0
lthumb 15.0272 6.18112 0
rclavicle 2.12494e-15 2.97281e-15 0
rhumerus -46.5513 11.4836 -91.1082
rradius 30.8928 0 0
rwrist -12.8928 0 0
rhand -31.8557 -25.7499 0
rfingers 7.12502 0 0
rthumb -5.10932 -55.6678 0
441
root 10.6405 17.3495 26.2565 6.96149 -1.13496 2.11248
lfemur -27.5052 4.51497 -28.3536
ltibia 28.5437 0 0
lfoot -7.96494 5.36361 0
ltoes -1.99545 0 0
rfemur -7.16611 -3.14594 16.2123
rtibia 60.1986 0 0
rfoot 6.88577 -6.43598 0
rtoes -7.65577 0 0
lowerback -6.25146 0.933035 -2.97492
upperback -3.5764 1.38901 0.624518
thorax -0.270205 0.747193 2.39695
lowerneck -16.8589 -4.62733 -13.551
upperneck 22.9357 -5.92009 12.3311
head 10.9733 -2.47359 5.95149
lclavicle 2.67624e-15 3.49209e-15 0
lhumerus -39.0034 -4.54257 89.5344
lradius 19.5015 0 0
lwrist -5.56553 0 0
lhand -11.1727 -23.2867 0
lfingers 7.12502 0 0
lthumb 14.8541 6.15989 0
rclavicle 2.67624e-15 3.49209e-15 0
rhumerus -46.8713 11.5355 -91.1047
rradius 30.9706 0 0
rwrist -12.9654 0 0
rhand -32.0109 -25.7316 0
rfingers 7.12502 0 0
rthumb -5.25922 -55.6461 0
442
root 10.6598 17.3668 26.3864 6.87262 -1.08519 2.31038
lfemur -26.7426 4.52909 -28.6137
ltibia 28.3207 0 0
lfoot -8.43006 5.27279 0
ltoes -1.975 0 0
rfemur -8.52749 -3.26165 15.8965
rtibia 61.7825 0 0
rfoot 6.26462 -6.75942 0
rtoes -7.45792 0 0
lowerback -6.14842 0.797049 -3.09963
upperback -3.56372 1.2166 0.607853
thorax -0.305385 0.660776 2.43364
lowerneck -16.886 -4.5263 -13.4583
upperneck 23.0025 -5.77967 12.2289
head 10.9746 -2.41389 5.92194
lclavicle 3.23025e-15 3.97569e-15 0
lhumerus -38.2043 -4.7718 89.4066
lradius 19.54 0 0
lwrist -5.58929 0 0
lhand -11.3313 -23.3216 0
lfingers 7.12502 0 0
lthumb 14.7013 6.1372 0
rclavicle 3.23025e-15 3.97569e-15 0
rhumerus -47.1397 11.5628 -91.0784
rradius 31.0758 0 0
rwrist -13.0554 0 0
rhand -32.1566 -25.6994 0
rfingers 7.12502 0 0
rthumb -5.39989 -55.6106 0
443
root 10.6776 17.3807 26.5139 6.7797 -1.0036 2.4726
lfemur -26.0296 4.53249 -28.8307
ltibia 28.1657 0 0
lfoot -8.87511 5.17809 0
ltoes -1.87789 0 0
rfemur -9.79752 -3.34264 15.6549
rtibia 63.0324 0 0
rfoot 5.55287 -7.03888 0
rtoes -7.41606 0 0
lowerback -6.0506 0.651977 -3.20309
upperback -3.53125 1.03012 0.604097
thorax -0.315343 0.566732 2.47212
lowerneck -16.9506 -4.43135 -13.3595
upperneck 23.0745 -5.64577 12.1276
head 10.9869 -2.35547 5.8908
lclavicle 3.84268e-15 4.44122e-15 0
lhumerus -37.3688 -5.08276 89.2855
lradius 19.6098 0 0
lwrist -5.55572 0 0
lhand -11.472 -23.355 0
lfingers 7.12502 0 0
lthumb 14.5658 6.11451 0
rclavicle 3.84268e-15 4.44122e-15 0
rhumerus -47.3533 11.5723 -91.0232
rradius 31.2221 0 0
rwrist -13.1718 0 0
rhand -32.3017 -25.6487 0
rfingers 7.12502 0 0
rthumb -5.54003 -55.5563 0
444
root 10.6942 17.3924 26.6383 6.6777 -0.892422 2.60391
lfemur -25.3549 4.51876 -29.0042
ltibia 28.0763 0 0
lfoot -9.34026 5.08361 0
ltoes -1.71824 0 0
rfemur -11.0339 -3.39984 15.4824
rtibia 64.0489 0 0
rfoot 4.71526 -7.28822 0
rtoes -7.5088 0 0
lowerback -5.95036 0.49486 -3.28707
upperback -3.47944 0.825506 0.614115
thorax -0.304888 0.463216 2.51417
lowerneck -17.0504 -4.33806 -13.251
upperneck 23.1541 -5.51216 12.022
head 11.0094 -2.2959 5.85653
lclavicle 4.55948e-15 4.90971e-15 0
lhumerus -36.4774 -5.4811 89.1726
lradius 19.7085 0 0
lwrist -5.46743 0 0
lhand -11.6008 -23.386 0
lfingers 7.12502 0 0
lthumb 14.4418 6.0932 0
rclavicle 4.55948e-15 4.90971e-15 0
rhumerus -47.5145 11.5732 -90.936
rradius 31.4189 0 0
rwrist -13.3213 0 0
rhand -32.4553 -25.5768 0
rfingers 7.12502 0 0
rthumb -5.68828 -55.4804 0
445
root 10.7096 17.402 26.7599 6.56772 -0.754466 2.70699
lfemur -24.7135 4.48939 -29.138
ltibia 28.0432 0 0
lfoot -9.82181 4.98971 0
ltoes -1.5025 0 0
rfemur -12.2374 -3.43394 15.3726
rtibia 64.8461 0 0
rfoot 3.76492 -7.50906 0
rtoes -7.72312 0 0
lowerback -5.84854 0.326991 -3.35334
upperback -3.40983 0.604694 0.636619
thorax -0.275266 0.35121 2.55939
lowerneck -17.1824 -4.24647 -13.1338
upperneck 23.2404 -5.37912 11.9128
head 11.0411 -2.2354 5.81951
lclavicle 5.36484e-15 5.38052e-15 0
lhumerus -35.5363 -5.95823 89.067
lradius 19.8344 0 0
lwrist -5.32858 0 0
lhand -11.7187 -23.415 0
lfingers 7.12502 0 0
lthumb 14.3282 6.07302 0
rclavicle 5.36484e-15 5.38052e-15 0
rhumerus -47.6274 11.5659 -90.8196
rradius 31.6613 0 0
rwrist -13.5006 0 0
rhand -32.6157 -25.4857 0
rfingers 7.12502 0 0
rthumb -5.84317 -55.3849 0
